# xmcd
#
# Track frame offsets: 
#        150
#        22520
#        35111
#        50468
#        75567
#        96420
#        117891
#        134302
#        151425
#        170623
#        185955
#        206332
#
# Disc length: 3068 seconds
#
# Revision: 2
# Processed by: cddbd v1.5.2PL0 Copyright (c) Steve Scherf et al.
# Submitted via: ExactAudioCopy v1.0b3
#
DISCID=9d0bfa0c
DTITLE=THE MODS - F.A.B.
DYEAR=1992
DGENRE=Rock
TTITLE0=RUMBLING IN THE JUNGLE
TTITLE1=Limousine Cow Boy
TTITLE2=Vicious
TTITLE3=ロメオとジュリエット 
TTITLE4=誰もが誰かを(Hey Hey Hey) 
TTITLE5=Hey Mr.DRIVER
TTITLE6=Dynamite
TTITLE7=堕落のメロディー
TTITLE8=LONG WAY
TTITLE9=(I wanna be a)GANGSTAR
TTITLE10=Sad Memory
TTITLE11=DID I SAY
EXTD=
EXTT0=
EXTT1=
EXTT2=
EXTT3=
EXTT4=
EXTT5=
EXTT6=
EXTT7=
EXTT8=
EXTT9=
EXTT10=
EXTT11=
PLAYORDER=
